<svg xmlns="http://www.w3.org/2000/svg" viewBox="0 0 64 64" role="img" aria-label="PaletteKit icon">
  <defs>
    <linearGradient id="bg" x1="0" y1="0" x2="1" y2="1">
      <stop offset="0" stop-color="#1f6fff"/>
      <stop offset="1" stop-color="#00a870"/>
    </linearGradient>
    <linearGradient id="plate" x1="0.15" y1="0.1" x2="0.9" y2="1">
      <stop offset="0" stop-color="#ffffff" stop-opacity="0.98"/>
      <stop offset="1" stop-color="#e9f2ff" stop-opacity="0.98"/>
    </linearGradient>
  </defs>

  <rect width="64" height="64" rx="15" fill="url(#bg)"/>

  <path d="M32 12C20.7 12 12 20 12 30.3c0 9.2 7.4 16.5 16.8 16.5h4.8c1.9 0 3.4 1.5 3.4 3.4 0 1.9 1.5 3.4 3.4 3.4h1.3c6.5 0 11.8-5.3 11.8-11.8v-9.7C53.5 21.1 43.8 12 32 12z" fill="url(#plate)"/>

  <circle cx="24" cy="26" r="3.1" fill="#1f6fff"/>
  <circle cx="32" cy="22.5" r="3" fill="#ff8a2a"/>
  <circle cx="40" cy="25.7" r="3.1" fill="#00a870"/>
  <circle cx="42.2" cy="34" r="3" fill="#5f74ff"/>
  <circle cx="33.3" cy="37.5" r="2.9" fill="#ff5d87"/>

  <circle cx="28.8" cy="44.2" r="2.1" fill="#dbe8ff"/>
</svg>
